<?xml version="1.0" encoding="utf-8"?>
<!-- Generator: Adobe Illustrator 24.1.2, SVG Export Plug-In . SVG Version: 6.00 Build 0)  -->
<svg version="1.1" id="レイヤー_1" xmlns="http://www.w3.org/2000/svg" xmlns:xlink="http://www.w3.org/1999/xlink" x="0px"
	 y="0px" viewBox="0 0 2500 2500" style="enable-background:new 0 0 2500 2500;" xml:space="preserve">
<style type="text/css">
	.st0{display:none;}
</style>
<path class="st0" d="M2202.4,0H297.6C133.5,0,0,133.5,0,297.6v1904.8C0,2366.5,133.5,2500,297.6,2500h1904.8
	c164.1,0,297.6-133.5,297.6-297.6V297.6C2500,133.5,2366.5,0,2202.4,0 M1964.6,1090.7c-13.7,1.3-27.4,2-41.1,2.1
	c-150.4,0-290.7-75.8-373.2-201.7v686.7c0,280.3-227.2,507.6-507.6,507.6s-507.6-227.2-507.6-507.6s227.2-507.6,507.6-507.6l0,0
	c10.6,0,21,1,31.4,1.6V1322c-10.4-1.3-20.7-3.2-31.4-3.2c-143.1,0-259,116-259,259s116,259,259,259c143.1,0,269.5-112.7,269.5-255.8
	l2.5-1166.3h239.3c22.6,214.6,195.6,382.2,410.8,397.9v278"/>
<path d="M1250,0C559.6,0,0,559.6,0,1250s559.6,1250,1250,1250s1250-559.6,1250-1250S1940.4,0,1250,0z M1854,1118.1h-0.2
	c-11.4,1.1-22.9,1.7-34.3,1.7c-125.7,0-242.9-63.3-311.7-168.5V1525c0,234.2-189.8,424-424,424s-424-189.8-424-424
	s189.8-424,424-424c8.9,0,17.5,0.8,26.2,1.3v208.9c-8.7-1-17.3-2.6-26.2-2.6c-119.5,0-216.4,96.9-216.4,216.4
	c0,119.5,96.9,216.4,216.4,216.4c119.5,0,225.1-94.2,225.1-213.7l2.1-974.2h199.9c18.8,179.2,163.4,319.2,343.1,332.4V1118.1z"/>
</svg>
